<svg width="117" height="35" viewBox="0 0 117 35" fill="none" xmlns="http://www.w3.org/2000/svg">
<rect width="117" height="35" rx="3" fill="#FFF100"/>
<path d="M77.6074 12.37H69.5376V10.269H81.3019V10.3434L73.6794 25.9082H71.0452L77.6074 12.37Z" fill="black"/>
<path d="M80.2656 22.676L82.3452 21.5755C83.0612 22.8132 84.1474 23.7765 86.2039 23.7765C88.3527 23.7765 89.5541 22.3552 89.5541 20.43C89.5541 18.5041 88.2374 17.1064 85.9036 17.1064C84.1704 17.1064 82.8335 17.7481 81.9325 18.5506L81.7732 18.482V10.269H90.7139V12.37H84.1258V15.4556C84.5962 15.1577 85.4534 14.9969 86.3775 14.9969C89.8207 14.9969 92.148 17.3122 92.148 20.3836C92.148 23.7765 89.7997 25.9996 86.2184 25.9996C83.4689 25.9996 81.2359 24.5783 80.2656 22.676V22.676Z" fill="black"/>
<path d="M92.6216 18C92.6216 13.3929 96.226 10 100.731 10C105.237 10 108.842 13.3929 108.842 18C108.842 22.6078 105.237 26 100.731 26C96.226 26 92.6216 22.6078 92.6216 18ZM106.278 18C106.278 14.6992 103.99 12.2239 100.731 12.2239C97.4736 12.2239 95.1857 14.6992 95.1857 18C95.1857 21.3007 97.4736 23.7769 100.731 23.7769C103.99 23.7769 106.278 21.3007 106.278 18Z" fill="black"/>
<path d="M101.066 14.8987V10.0022H100.397V14.8987C98.86 15.0637 97.6631 16.355 97.6631 17.9236C97.6631 19.6044 99.0368 20.9678 100.731 20.9678C102.425 20.9678 103.8 19.605 103.8 17.9236C103.8 16.355 102.602 15.0645 101.066 14.8987Z" fill="black"/>
<path d="M67.1507 10H66.1235V25.7049H67.1507V10Z" fill="#EC1C24"/>
<path d="M43.4649 10.1853L37 25.59H38.3895L39.4772 22.7731H44.0087V21.754H39.9L43.5254 12.6428L43.4649 10.1853Z" fill="black"/>
<path d="M43.4652 10.1853L49.9308 25.59H48.5406L47.4536 22.7731H42.9214V21.754H47.0301L43.4047 12.6428L43.4652 10.1853Z" fill="black"/>
<path d="M49.9303 25.5904H48.6914V10.1206L49.9303 11.9185V25.5904Z" fill="black"/>
<path d="M56.6092 19.9543L55.9018 21.0298L48.9183 12.338L48.6914 10.1206L56.6092 19.9543Z" fill="black"/>
<path d="M61.8262 25.6697H63.0651V10.2L61.8262 11.9979V25.6697Z" fill="black"/>
<path d="M55.147 20.0336L55.9019 21.0291L62.8378 12.4174L63.0647 10.2L55.147 20.0336Z" fill="black"/>
<circle cx="18.5" cy="17.5" r="9.5" fill="black"/>
<path d="M23 17.5L16.25 21.3971L16.25 13.6029L23 17.5Z" fill="#FFF100"/>
</svg>
