<svg xmlns="http://www.w3.org/2000/svg" width="630" height="135" fill-rule="evenodd" xmlns:v="https://vecta.io/nano"><g fill="#000"><path d="M45.954 45.356c0 5.539 0 6.287 6.287 6.287 16.017 0 19.31-6.586 19.31-14.519 0-10.479-7.634-12.873-18.861-12.873-6.287 0-6.736 2.543-6.736 7.035v14.07zm6.587 26.046c-6.138-.299-6.736-.15-6.736 2.395 0 9.131.748 12.125 4.34 12.125 2.845 0 5.389-1.047 8.084-1.047 5.987 0 9.131 5.538 9.131 10.028 0 6.437-4.491 11.377-12.275 11.377-7.634 0-13.921-1.497-20.507-1.497-7.634 0-15.119 1.497-22.753 1.497C3.742 106.28 0 101.34 0 94.903c0-4.49 2.694-10.028 7.784-10.028 2.245 0 4.34 1.047 6.736 1.047 2.844 0 3.742-2.844 3.742-12.125V34.579c0-9.431-.748-12.125-3.742-12.125-2.396 0-4.491 1.047-6.736 1.047C2.694 23.501 0 17.963 0 13.472 0 7.036 3.742 2.096 14.37 2.096c6.886 0 13.472 1.497 20.357 1.497 16.167 0 22.154-1.497 27.843-1.497 8.681 0 19.609 3.293 26.494 8.982 7.635 6.287 11.078 16.016 11.078 25.746 0 10.029-3.593 18.861-11.078 25.298-8.532 7.335-17.962 9.28-28.889 9.28h-7.634zm84.944 3.241c-3.99 4.266-19.95 2.201-19.95 9.493 0 4.817 3.852 6.467 7.843 6.467 8.117 0 12.107-4.815 12.107-12.933v-3.027zm-.963-70.445c2.752-1.514 6.054-3.165 9.218-3.165 5.091 0 8.531 5.228 8.531 9.907 0 5.503-6.742 7.567-10.87 9.218l-9.631 3.852c-2.751 1.101-7.292 2.752-10.182 2.752-3.989 0-6.466-4.678-6.466-8.118 0-4.815 5.778-7.017 9.081-8.942l10.319-5.504zM123.588 51.39c0 6.329-6.053 9.219-11.832 9.219-6.742 0-12.658-4.816-12.658-11.832 0-8.669 8.805-16.511 29.994-16.511 6.88 0 16.236.688 22.289 4.127 7.293 4.128 8.806 10.732 8.806 21.189v25.867c0 5.366.826 6.467 2.339 6.467 1.101 0 2.202-.276 3.302-.276 4.403 0 6.88 3.715 6.88 7.705 0 7.705-7.705 10.594-14.172 10.594-6.329 0-13.346-2.339-15.685-8.806-6.467 6.193-14.86 8.806-23.528 8.806-12.52 0-24.49-6.604-24.49-20.638 0-32.608 42.652-15.685 42.652-33.846 0-5.229-4.815-7.705-9.356-7.705-2.339 0-4.541.413-4.541 3.164v2.476z"/><path d="M198.574 56.894c0 5.229 4.127 9.081 9.218 9.081 5.229 0 9.356-3.99 9.356-9.081 0-5.366-3.99-9.219-9.356-9.219-5.228 0-9.218 3.853-9.218 9.219h0zm8.943 60.401c12.521 0 16.373-2.889 16.373-7.842 0-3.44-3.164-5.641-11.282-5.641-5.366 0-10.732-.413-16.236-.413-2.889.963-6.329 3.027-6.329 6.467 0 3.99 3.028 7.429 17.474 7.429h0zm11.695-29.994c22.014 0 27.105 11.695 27.105 21.051 0 9.769-6.191 16.924-14.584 21.188-7.568 3.853-18.3 5.229-26.83 5.229-7.155 0-16.648-1.238-23.115-4.265-7.705-3.578-14.034-9.907-14.034-18.849s6.329-13.485 14.172-15.548v-.275c-7.018-.826-11.145-5.367-11.145-12.659 0-8.117 4.127-11.695 11.282-14.721-3.439-3.715-5.091-7.43-5.091-12.521 0-15.41 16.236-23.115 29.72-23.115 1.788 0 3.577.138 5.365.275-.55-10.181 8.531-15.272 17.749-15.272 7.293 0 15.548 3.852 15.548 12.108 0 4.816-3.715 8.117-8.393 8.117-2.89 0-4.678-1.238-6.191-3.714-.688-1.101-1.101-2.339-2.615-2.339-2.751 0-3.302 3.439-2.889 5.503 8.668 2.477 13.484 10.87 13.484 19.675 0 7.017-4.128 13.759-9.769 18.025s-13.896 5.503-20.913 5.503c-5.779 0-10.457-1.101-15.685-3.44-1.101.963-2.064 2.064-2.064 3.715 0 3.99 3.439 6.329 12.245 6.329h16.648zm62.119-71.408a12.933 12.933 0 1 1-25.866 0 12.933 12.933 0 1 1 25.866 0h0zm-23.39 44.44c0-7.154-.413-9.63-2.476-9.63-1.376 0-2.752.962-4.541.962-4.54 0-6.054-3.714-6.054-7.842 0-5.228 2.339-9.494 8.255-9.494 3.853 0 7.568 1.376 11.283 1.376 4.128 0 8.118-1.376 12.108-1.376 3.164 0 4.128 2.064 4.128 7.017v38.801c0 8.53 1.238 9.631 2.338 9.631.688 0 1.376-.276 2.064-.551a7.82 7.82 0 0 1 2.477-.412c4.54 0 6.054 3.715 6.054 7.842 0 5.228-2.339 9.494-8.118 9.494-5.917 0-11.42-1.376-17.061-1.376-5.229 0-10.457 1.376-15.41 1.376-5.779 0-8.118-4.266-8.118-9.494 0-4.127 1.514-7.842 6.054-7.842.963 0 1.651.274 2.477.412.688.138 1.376.551 2.064.551 1.926 0 2.476-2.752 2.476-9.631V60.333z"/><path d="M348.886 62.948c0-7.705-3.164-11.145-8.531-11.282-4.541-.138-13.071 2.889-13.071 15.272v13.209c0 7.98.551 9.631 1.651 9.631.551 0 .963-.275 1.514-.551s1.101-.412 2.064-.412c2.062 0 3.99 2.064 3.99 7.842 0 5.229-1.652 9.494-5.504 9.494-6.33 0-11.832-1.376-17.474-1.376-5.228 0-10.456 1.376-15.135 1.376-3.439 0-5.778-4.265-5.778-9.494 0-4.127 1.513-7.842 6.054-7.842.963 0 1.651.275 2.476.412.688.138 1.376.551 2.064.551 1.927 0 2.477-1.514 2.477-9.631V60.334c0-7.842-.688-9.631-2.477-9.631-1.376 0-2.752.963-4.54.963-4.541 0-6.054-3.715-6.054-7.843 0-5.227 2.339-9.493 5.366-9.493 3.164 0 6.604 1.376 11.282 1.376 3.853 0 6.329-1.376 9.769-1.376 3.853 0 3.853 1.651 3.853 7.154v3.441h.274c5.918-7.431 14.035-12.659 23.941-12.659 12.107 0 23.391 8.668 23.391 24.628v23.253c0 8.255.824 9.631 2.476 9.631.688 0 1.375-.275 2.063-.551.826-.274 1.652-.412 2.476-.412 4.541 0 6.055 3.715 6.055 7.842 0 5.229-2.34 9.494-8.117 9.494-5.916 0-11.42-1.376-17.063-1.376-5.226 0-8.254 1.376-13.207 1.376-3.027 0-5.504-2.339-5.504-9.494 0-6.191 2.338-7.842 4.266-7.842.687 0 1.238.275 1.65.412.551.276 1.102.551 1.514.551 1.65 0 1.789-1.927 1.789-9.631V62.948z"/><path d="M424.267 74.643c-3.99 4.266-19.951 2.201-19.951 9.493 0 4.817 3.853 6.467 7.844 6.467 8.117 0 12.107-4.815 12.107-12.933v-3.027zM410.371 51.39c0 6.329-6.055 9.219-11.833 9.219-6.742 0-12.658-4.816-12.658-11.832 0-8.669 8.805-16.511 29.994-16.511 6.879 0 16.235.688 22.289 4.127 7.291 4.128 8.805 10.732 8.805 21.189v25.867c0 5.366.826 6.467 2.34 6.467 1.1 0 2.201-.276 3.303-.276 4.402 0 6.879 3.715 6.879 7.705 0 7.705-7.705 10.594-14.172 10.594-6.33 0-13.346-2.339-15.686-8.806-6.467 6.193-14.859 8.806-23.527 8.806-12.52 0-24.49-6.604-24.49-20.638 0-32.608 42.652-15.685 42.652-33.846 0-5.229-4.816-7.705-9.355-7.705-2.34 0-4.541.413-4.541 3.164v2.476z"/></g><path fill="#ed1c24" d="M461.401 107.752h16.893V1.953h-16.893z"/><path d="M498.651 34.579c0-10.328-1.049-12.125-3.742-12.125-2.397 0-4.492 1.048-6.736 1.048-5.09 0-7.784-5.538-7.784-10.029 0-6.437 3.742-11.376 10.477-11.376 4.64 0 9.281 1.497 14.072 1.497 3.592 0 8.233-1.497 12.873-1.497 5.688 0 6.737 2.245 6.737 10.777v60.924c0 9.131.748 12.125 3.742 12.125 2.394 0 4.49-1.048 6.734-1.048 5.09 0 7.785 5.538 7.785 10.028 0 6.438-3.742 11.377-10.478 11.377-7.635 0-13.323-1.497-20.508-1.497-7.635 0-15.119 1.497-22.752 1.497-4.94 0-8.682-4.939-8.682-11.377 0-4.49 2.694-10.028 7.784-10.028 2.244 0 4.339 1.048 6.736 1.048 2.994 0 3.742-2.994 3.742-12.125V34.579zm97.893-4.491c0-6.736-7.186-9.88-12.873-9.88-4.041 0-7.783.599-11.078 2.994 1.947 2.395 2.994 4.64 2.994 7.784 0 8.682-7.186 14.071-15.268 14.071-9.131 0-15.267-7.635-15.267-16.317C545.052 7.485 567.653 0 585.317 0c19.758 0 39.069 8.832 39.069 31.285 0 21.406-20.207 29.039-37.422 34.429-8.232 2.694-21.705 5.838-22.453 16.017l.299.298c3.144-5.239 8.681-8.381 14.968-8.381s11.079 3.142 15.418 6.286c4.192 3.143 7.783 6.287 11.676 6.287 1.797 0 3.293-1.197 4.641-2.395-5.389-.598-9.282-4.64-9.282-10.178 0-6.438 5.54-11.377 11.827-11.377 10.177 0 15.418 9.729 15.418 19.01 0 13.173-10.03 26.944-23.952 26.944-7.783 0-14.07-3.892-18.859-7.783s-8.533-7.634-11.377-7.634c-1.348 0-1.797.448-1.646 4.49 0 6.886-6.288 10.927-12.873 10.927-12.424 0-18.862-11.825-18.862-23.052 0-20.208 17.065-30.985 33.981-38.021 7.633-3.143 20.656-7.185 20.656-17.064" fill="#000"/></svg>